<?xml version="1.0" standalone="no"?>
<!DOCTYPE svg PUBLIC "-//W3C//DTD SVG 20010904//EN"
 "http://www.w3.org/TR/2001/REC-SVG-20010904/DTD/svg10.dtd">
<svg version="1.0" xmlns="http://www.w3.org/2000/svg"
 width="500.000000pt" height="500.000000pt" viewBox="0 0 500.000000 500.000000"
 preserveAspectRatio="xMidYMid meet">
<metadata>
Created by potrace 1.16, written by Peter Selinger 2001-2019
</metadata>
<g transform="translate(0.000000,500.000000) scale(0.100000,-0.100000)"
fill="#000000" stroke="none">
<path d="M2370 4470 c0 -5 -25 -10 -55 -10 -32 0 -55 -4 -55 -11 0 -6 -27 -9
-72 -8 -47 1 -73 -2 -76 -9 -2 -7 -17 -12 -33 -12 -16 0 -29 -4 -29 -10 0 -5
-16 -10 -35 -10 -19 0 -35 -4 -35 -10 0 -5 -16 -10 -35 -10 -19 0 -35 -5 -35
-11 0 -8 -13 -10 -37 -6 -21 3 -32 3 -25 0 23 -9 12 -23 -18 -23 -16 0 -30 -5
-30 -11 0 -7 -11 -9 -30 -6 -23 5 -28 3 -23 -8 3 -10 -2 -15 -16 -15 -12 0
-21 -4 -21 -10 0 -5 -9 -10 -20 -10 -11 0 -20 -4 -20 -10 0 -5 -7 -10 -15 -10
-8 0 -15 -4 -15 -10 0 -5 -9 -10 -20 -10 -11 0 -20 -4 -20 -10 0 -5 -9 -10
-20 -10 -11 0 -20 -4 -20 -10 0 -5 -7 -10 -15 -10 -8 0 -15 -4 -15 -10 0 -5
-9 -10 -19 -10 -11 0 -26 -7 -35 -15 -8 -8 -22 -15 -30 -15 -9 0 -16 -5 -16
-11 0 -6 -9 -9 -19 -6 -14 3 -18 1 -14 -9 3 -8 -1 -14 -9 -14 -7 0 -20 -9 -28
-20 -8 -11 -19 -20 -25 -20 -6 0 -17 -9 -25 -20 -8 -11 -20 -20 -27 -20 -7 0
-13 -5 -13 -11 0 -6 -7 -9 -14 -6 -11 4 -13 1 -9 -10 5 -12 2 -15 -10 -10 -12
4 -14 2 -10 -10 5 -13 2 -15 -11 -10 -10 4 -15 3 -11 -3 9 -15 -43 -63 -61
-56 -8 3 -13 2 -9 -3 9 -16 -7 -43 -24 -38 -9 2 -22 -2 -29 -10 -8 -7 -8 -13
-2 -13 5 0 10 -5 10 -11 0 -6 -7 -9 -14 -6 -11 4 -13 1 -9 -10 5 -12 2 -15
-10 -10 -12 4 -14 2 -10 -10 5 -13 2 -15 -11 -10 -9 4 -15 3 -11 -2 10 -18 -7
-41 -32 -41 -13 0 -22 -4 -19 -9 10 -15 -5 -43 -20 -37 -9 3 -11 0 -7 -11 5
-12 2 -15 -10 -10 -14 5 -16 2 -11 -20 6 -21 4 -25 -9 -20 -12 4 -14 2 -10
-10 5 -12 2 -15 -10 -10 -11 4 -14 2 -10 -9 3 -8 -1 -14 -10 -14 -18 0 -31
-27 -28 -57 1 -13 -2 -23 -7 -23 -5 0 -12 -14 -16 -31 -4 -22 -10 -29 -20 -26
-10 4 -13 1 -10 -7 3 -7 -2 -16 -10 -19 -9 -4 -13 -13 -10 -22 4 -10 0 -15
-11 -15 -11 0 -15 -6 -10 -19 3 -12 0 -21 -10 -24 -9 -4 -12 -13 -8 -23 5 -13
3 -16 -10 -11 -14 5 -16 2 -11 -18 4 -18 2 -25 -8 -25 -11 0 -13 -9 -10 -32 4
-26 2 -30 -13 -24 -13 5 -16 2 -11 -10 3 -8 -1 -22 -9 -31 -9 -8 -13 -23 -10
-33 3 -11 -1 -20 -11 -24 -11 -4 -14 -13 -10 -31 4 -14 3 -25 -1 -25 -11 0
-32 -63 -47 -140 -7 -36 -16 -72 -20 -78 -11 -19 -16 -108 -18 -378 -2 -190 1
-245 11 -258 8 -10 11 -28 8 -46 -7 -34 10 -90 26 -90 9 0 8 -3 0 -8 -13 -8
-7 -52 7 -52 5 0 8 -14 8 -31 -1 -19 6 -37 15 -44 18 -13 23 -35 8 -35 -4 0
-2 -20 7 -45 8 -25 21 -45 28 -45 8 0 14 -7 14 -15 0 -8 -4 -15 -9 -15 -6 0
-3 -12 5 -27 7 -16 14 -34 14 -40 0 -7 7 -13 15 -13 8 0 15 -4 15 -10 0 -5 -6
-10 -12 -10 -9 0 -9 -3 -2 -8 6 -4 13 -15 17 -24 3 -10 13 -18 22 -18 8 0 15
-4 15 -10 0 -5 -4 -10 -9 -10 -5 0 -2 -15 7 -34 9 -21 20 -32 29 -29 7 3 13 0
13 -6 0 -6 -6 -11 -12 -11 -10 0 -10 -2 0 -9 18 -11 42 -59 42 -83 0 -12 9
-22 20 -25 12 -3 19 -11 17 -17 -7 -17 12 -46 29 -46 10 0 14 -6 10 -15 -3 -8
0 -19 7 -25 7 -6 23 -19 35 -30 13 -10 21 -24 17 -29 -3 -7 0 -8 9 -5 12 4 16
0 16 -16 0 -13 8 -24 19 -27 11 -3 22 -15 25 -27 8 -34 124 -146 144 -139 11
5 14 2 9 -10 -4 -12 -2 -14 10 -10 12 5 15 2 10 -9 -4 -12 -1 -14 15 -10 17 4
20 2 15 -12 -5 -13 -1 -19 12 -23 11 -3 21 -13 24 -24 3 -11 14 -19 27 -19 15
0 20 -5 17 -14 -4 -10 4 -17 24 -21 16 -4 29 -13 29 -20 0 -9 6 -12 15 -9 8 4
15 1 15 -5 0 -6 5 -11 11 -11 6 0 17 -7 25 -15 9 -8 24 -15 35 -15 10 0 19 -7
19 -15 0 -9 6 -12 15 -9 9 4 15 0 15 -8 0 -16 60 -48 90 -48 11 0 20 -7 20
-15 0 -9 6 -12 15 -9 8 4 15 1 15 -5 0 -6 7 -11 15 -11 8 0 24 -9 35 -20 11
-11 33 -20 50 -20 17 0 39 -9 50 -20 11 -11 33 -20 51 -20 17 0 37 -7 46 -15
8 -8 19 -12 25 -9 6 4 14 1 18 -6 4 -7 26 -12 49 -12 22 0 41 -3 41 -8 0 -14
33 -21 42 -8 6 10 12 9 23 -6 11 -14 27 -19 70 -18 30 0 55 -3 55 -8 0 -4 18
-10 40 -12 22 -2 40 0 40 4 0 13 88 9 92 -3 5 -14 249 -14 257 0 3 5 45 9 93
8 58 -1 91 3 102 12 9 7 25 11 36 8 11 -3 26 1 34 8 7 7 29 13 50 12 22 -1 41
5 46 12 4 8 15 11 24 8 8 -3 21 0 28 7 7 7 33 15 58 19 24 3 49 13 56 21 6 9
24 16 40 16 31 0 294 127 294 141 0 5 7 9 15 9 8 0 23 9 32 20 10 11 25 20 35
20 9 0 21 6 25 13 4 6 22 19 38 28 17 10 34 26 40 38 5 12 15 19 21 17 18 -7
74 52 67 71 -5 12 -2 15 9 11 8 -4 21 2 29 13 7 10 21 19 29 19 19 0 80 60 80
78 0 16 59 75 85 86 13 5 16 10 8 13 -7 3 -13 9 -13 15 0 6 7 7 16 4 8 -3 12
-2 9 4 -3 6 -1 10 4 10 6 0 11 6 11 13 0 8 11 19 25 25 13 6 27 22 31 36 3 13
12 27 21 30 8 3 12 10 8 16 -3 5 8 23 24 39 19 19 28 36 25 46 -4 10 0 15 10
15 13 0 15 6 10 27 -6 21 -4 25 8 21 19 -8 38 24 31 53 -5 18 -3 21 10 16 11
-4 14 -2 11 7 -3 7 2 16 11 19 11 5 14 14 9 33 -6 22 -4 26 9 21 16 -6 27 18
27 66 0 15 5 27 10 27 6 0 10 9 10 19 0 11 6 21 12 23 8 3 12 19 10 43 -3 31
-1 37 12 32 10 -4 13 -1 10 8 -3 8 1 21 9 29 10 11 13 28 9 62 -4 40 -3 46 10
41 12 -4 14 -1 11 13 -3 10 2 28 10 40 11 16 13 38 9 87 -4 54 -2 65 9 61 10
-4 14 5 15 36 1 22 5 84 10 136 5 52 6 131 2 175 -4 44 -10 112 -12 150 -6
102 -17 167 -32 189 -7 11 -11 30 -8 43 5 17 2 23 -10 23 -13 0 -15 7 -10 40
4 27 3 40 -5 40 -6 0 -11 13 -11 29 0 17 -4 33 -10 36 -5 3 -10 17 -10 31 0
13 -4 24 -10 24 -5 0 -10 9 -10 20 0 11 -7 23 -15 26 -10 4 -13 14 -9 30 4 15
2 24 -5 24 -6 0 -11 8 -11 19 0 10 -11 30 -25 45 -14 15 -24 30 -23 34 3 13
-42 102 -52 102 -6 0 -10 6 -10 14 0 8 -8 22 -17 32 -10 10 -18 22 -19 28 -2
27 -34 86 -54 96 -12 6 -20 16 -18 22 2 6 -17 33 -42 60 -81 89 -262 263 -276
266 -8 2 -14 9 -15 15 0 7 -20 28 -45 47 -25 19 -53 42 -63 51 -9 8 -23 13
-29 11 -7 -2 -12 1 -12 7 0 6 -6 8 -14 5 -8 -3 -16 3 -19 15 -3 13 -13 21 -26
21 -12 0 -24 6 -27 14 -3 8 -12 12 -20 9 -8 -3 -14 -1 -14 5 0 5 -12 7 -27 4
-21 -4 -25 -2 -20 11 6 16 -24 34 -50 29 -7 -2 -13 4 -13 11 0 16 -29 27 -72
27 -27 0 -41 20 -15 20 6 0 3 6 -8 12 -11 7 -35 11 -52 10 -24 -2 -33 2 -33
13 0 8 -8 15 -17 15 -9 0 -25 8 -36 18 -15 12 -21 14 -24 5 -3 -7 -14 -13 -25
-13 -14 0 -18 5 -14 15 4 11 -1 15 -17 15 -13 0 -32 7 -43 15 -10 8 -36 15
-56 15 -20 0 -40 5 -43 10 -3 6 -44 10 -91 10 -46 0 -84 4 -84 8 0 4 -35 13
-78 20 -94 15 -312 16 -312 2z m218 -64 c56 0 102 -3 102 -8 0 -4 24 -8 54 -8
30 0 66 -4 80 -10 14 -5 45 -11 69 -12 23 -2 45 -6 48 -11 3 -4 22 -8 42 -9
20 -1 37 -5 37 -10 0 -4 20 -8 45 -8 25 0 45 -5 45 -10 0 -14 60 -39 77 -33 8
3 20 -2 27 -12 7 -10 31 -19 60 -22 31 -4 46 -10 42 -18 -5 -13 86 -59 138
-70 16 -3 38 -17 48 -30 11 -14 25 -22 33 -18 8 3 15 0 15 -6 0 -6 9 -11 20
-11 11 0 20 -5 20 -11 0 -20 67 -69 95 -69 8 0 15 -7 15 -15 0 -9 6 -12 15 -9
10 4 15 0 15 -10 0 -9 7 -19 15 -22 8 -4 15 -11 15 -17 0 -16 210 -217 227
-217 9 0 13 -6 10 -14 -4 -11 -1 -13 10 -9 12 5 15 2 10 -10 -4 -11 -2 -14 9
-10 7 3 14 0 14 -6 0 -6 -6 -11 -12 -12 -10 0 -10 -2 0 -6 6 -2 12 -11 12 -18
0 -19 49 -75 66 -75 8 0 14 -6 12 -12 -4 -25 13 -57 28 -51 7 3 14 0 14 -6 0
-6 -5 -11 -11 -11 -7 0 1 -12 17 -27 18 -16 24 -28 17 -30 -18 -6 13 -63 33
-63 10 0 14 -6 10 -15 -8 -22 14 -64 30 -58 8 3 14 0 14 -6 0 -6 -5 -11 -10
-11 -13 0 25 -76 42 -84 11 -5 11 -7 0 -12 -8 -4 -9 -10 -4 -17 5 -7 12 -24
16 -39 3 -16 13 -28 20 -28 10 0 14 -13 14 -43 -1 -44 20 -117 34 -117 5 0 6
-11 2 -24 -3 -14 -2 -31 2 -38 5 -7 9 -24 10 -38 1 -14 7 -77 14 -140 9 -80
10 -173 5 -305 -5 -104 -8 -205 -8 -222 0 -22 -5 -33 -15 -33 -11 0 -12 -9 -7
-41 5 -30 3 -44 -6 -50 -8 -5 -13 -25 -13 -49 1 -33 -2 -40 -13 -35 -12 4 -14
0 -9 -19 3 -14 1 -26 -5 -28 -6 -2 -11 -21 -11 -42 0 -29 -3 -36 -15 -32 -12
5 -13 0 -8 -24 4 -19 3 -30 -4 -30 -6 0 -11 -16 -11 -36 0 -27 -3 -35 -14 -31
-10 4 -13 1 -9 -9 3 -7 0 -14 -6 -14 -6 0 -11 -12 -11 -26 0 -18 -4 -25 -14
-21 -10 4 -12 0 -9 -14 4 -12 0 -19 -9 -19 -11 0 -14 -8 -10 -27 4 -22 2 -25
-12 -20 -9 4 -15 3 -12 -1 9 -14 -21 -87 -37 -90 -9 -2 -14 -9 -10 -18 3 -8 0
-14 -6 -14 -6 0 -11 -9 -11 -21 0 -15 -5 -19 -16 -15 -9 3 -12 2 -8 -5 3 -6
-3 -17 -15 -25 -12 -8 -21 -24 -21 -36 0 -14 -5 -18 -16 -14 -8 3 -12 2 -9 -3
9 -15 -17 -62 -31 -57 -8 3 -11 0 -8 -8 6 -14 -22 -30 -37 -21 -5 4 -6 0 -3
-8 3 -8 -9 -29 -26 -46 -16 -18 -30 -37 -30 -42 0 -5 -6 -9 -14 -9 -8 0 -18
-9 -21 -20 -3 -11 -11 -20 -16 -20 -6 0 -32 -23 -60 -51 -27 -27 -53 -47 -59
-44 -6 3 -7 -1 -4 -9 4 -9 1 -16 -6 -16 -7 0 -21 -10 -31 -21 -10 -12 -25 -19
-33 -16 -11 4 -13 1 -9 -10 5 -12 1 -14 -15 -9 -17 6 -21 4 -16 -8 4 -11 1
-16 -10 -16 -9 0 -16 -5 -16 -11 0 -6 -9 -9 -19 -6 -14 3 -18 1 -14 -9 3 -8
-1 -14 -11 -14 -9 0 -16 -4 -16 -10 0 -5 -16 -12 -35 -16 -19 -3 -35 -11 -35
-16 0 -6 -9 -8 -19 -5 -14 3 -18 1 -14 -9 3 -9 -2 -14 -16 -14 -12 0 -21 -4
-21 -10 0 -5 -9 -10 -20 -10 -11 0 -20 -4 -20 -10 0 -5 -7 -10 -15 -10 -8 0
-15 -5 -15 -11 0 -7 -12 -10 -29 -7 -21 3 -28 1 -24 -9 3 -9 -4 -13 -21 -13
-14 0 -26 -5 -26 -11 0 -7 -12 -10 -30 -7 -20 3 -30 0 -30 -9 0 -8 -12 -13
-30 -13 -16 0 -30 -5 -30 -11 0 -8 -12 -10 -34 -6 -29 5 -34 3 -29 -10 5 -13
-2 -15 -39 -12 -36 3 -44 1 -40 -10 4 -11 -4 -13 -41 -9 -36 4 -47 2 -47 -8 0
-11 -17 -14 -70 -14 -40 0 -70 -4 -70 -10 0 -6 -82 -10 -225 -10 -125 0 -225
4 -225 9 0 11 -55 21 -135 25 -106 4 -115 6 -115 19 0 13 -60 41 -90 42 -8 1
-28 7 -44 13 -16 7 -43 10 -63 6 -29 -5 -35 -3 -39 14 -4 14 -17 22 -44 26
-21 3 -40 13 -44 21 -3 8 -23 18 -46 21 -36 6 -57 24 -27 24 6 0 -1 7 -16 15
-15 8 -34 12 -41 9 -7 -3 -16 2 -19 10 -4 10 -19 16 -38 16 -23 0 -30 4 -26
14 4 10 -4 17 -24 21 -16 4 -29 13 -29 21 0 17 -38 34 -59 26 -10 -4 -11 1 -6
18 5 15 4 20 -3 16 -12 -7 -65 38 -176 150 -80 80 -96 99 -96 113 0 5 -4 11
-9 13 -20 7 -91 71 -91 82 0 6 -14 27 -30 46 -16 19 -30 41 -30 48 0 6 -4 12
-10 12 -5 0 -10 6 -10 13 0 7 -8 22 -17 33 -34 38 -85 133 -78 145 4 5 -1 12
-9 15 -9 3 -16 14 -16 23 0 9 -9 31 -20 49 -23 37 -44 92 -65 166 -8 27 -19
54 -24 59 -6 6 -11 21 -11 34 0 13 -3 23 -8 23 -4 0 -8 18 -8 41 -1 22 -7 46
-13 52 -6 6 -11 25 -11 43 0 18 -6 35 -12 38 -9 4 -10 8 -2 11 8 4 7 28 -4 83
-20 104 -28 422 -10 433 8 5 12 39 11 115 -1 98 1 110 20 126 17 15 20 29 19
79 -2 51 1 60 14 55 9 -3 12 -2 9 4 -4 6 0 17 9 25 10 11 13 26 9 52 -5 30 -4
35 10 30 17 -6 32 31 28 71 -2 13 3 22 12 22 17 0 38 45 31 65 -4 9 3 24 17
36 16 14 23 30 22 47 -2 23 -1 24 6 7 8 -19 8 -19 16 5 5 14 8 34 6 44 -2 13
2 17 11 13 20 -7 38 26 31 54 -5 18 -3 21 10 16 11 -4 14 -2 10 9 -3 8 1 14
10 14 20 0 52 50 48 78 -1 12 2 22 8 22 6 0 11 -5 11 -12 0 -6 6 -3 14 7 7 10
11 27 8 38 -3 14 -1 18 9 15 16 -5 259 235 259 257 0 8 17 19 40 25 21 6 43
16 47 23 4 7 15 17 24 22 10 6 37 24 60 40 24 17 56 36 72 44 15 8 27 21 27
29 0 7 6 12 13 9 13 -4 168 69 178 85 3 5 10 8 15 6 14 -5 108 33 120 48 6 8
22 13 35 12 34 -2 109 21 109 33 0 6 10 9 23 8 35 -4 126 12 140 24 7 7 55 13
122 14 72 1 111 6 114 14 2 7 14 8 35 3 17 -4 77 -7 134 -8z"/>
<path d="M3055 2898 c-32 -17 -85 -71 -85 -85 0 -8 -12 -18 -27 -24 -16 -7
-23 -13 -15 -16 6 -3 12 -15 12 -28 0 -42 43 -80 111 -99 35 -9 59 -20 53 -24
-5 -4 -38 -56 -73 -117 -35 -60 -93 -156 -128 -213 -59 -94 -72 -125 -44 -108
11 7 143 219 211 339 43 75 60 93 60 62 0 -22 45 -48 70 -40 50 16 120 99 120
142 -1 25 -35 63 -57 63 -28 0 -43 20 -43 57 0 18 -4 33 -9 33 -5 0 -11 9 -14
20 -6 22 -62 50 -99 50 -13 0 -32 -6 -43 -12z m115 -33 c11 -10 22 -34 25 -54
10 -60 22 -78 59 -91 52 -17 50 -58 -3 -111 -50 -50 -85 -53 -104 -6 -18 41
-32 52 -87 67 -73 19 -90 34 -90 81 0 48 20 90 57 118 34 26 112 24 143 -4z"/>
<path d="M3350 2730 c55 -10 100 -43 100 -75 0 -8 -20 -42 -44 -77 -110 -156
-157 -230 -208 -323 -51 -94 -56 -100 -84 -98 -51 4 -101 -16 -133 -52 -17
-20 -31 -42 -31 -50 0 -8 -3 -15 -7 -15 -62 0 -771 79 -1038 115 -190 26 -217
36 -243 88 -19 39 5 85 90 175 40 43 86 93 103 113 16 19 -7 -3 -53 -50 -46
-47 -101 -108 -123 -134 -38 -47 -39 -51 -39 -125 l0 -77 -39 -22 c-47 -27
-71 -75 -71 -143 0 -44 4 -56 30 -81 28 -28 33 -29 112 -28 93 1 98 -1 176
-48 73 -43 115 -43 192 -1 l58 33 62 -30 c78 -37 148 -40 204 -7 20 12 49 22
64 22 37 0 361 -48 373 -55 5 -4 16 -19 24 -36 13 -25 21 -29 55 -29 21 0 51
5 67 11 21 8 46 8 96 -2 84 -15 127 0 146 53 36 94 43 104 87 127 24 13 44 29
44 36 0 7 7 15 14 18 31 12 32 117 1 117 -29 0 -28 58 2 88 7 7 16 25 20 40 3
14 15 35 25 46 10 11 18 28 18 38 0 10 4 18 9 18 5 0 15 16 22 35 7 19 16 35
19 35 19 0 30 62 30 165 l0 114 -34 37 c-31 34 -40 37 -93 40 l-58 3 55 -9z
m118 -219 c-4 -61 -11 -78 -98 -237 -70 -127 -102 -175 -124 -188 -23 -14 -31
-15 -35 -5 -2 7 -14 23 -26 35 l-22 22 30 54 c94 169 127 223 196 316 83 113
86 113 79 3z m-1541 -386 c271 -36 782 -93 906 -101 l107 -7 0 -46 c0 -65 -3
-68 -82 -85 -17 -4 -34 -18 -43 -36 -9 -17 -23 -30 -33 -30 -9 0 -92 10 -184
22 -155 20 -168 24 -168 43 0 37 -37 82 -87 106 -57 28 -127 30 -220 5 -35 -9
-74 -14 -88 -10 -14 3 -40 27 -60 56 -45 62 -93 85 -146 69 -20 -6 -42 -18
-49 -26 -19 -23 -38 -18 -54 13 -8 15 -26 33 -40 40 -16 7 -26 20 -26 32 l0
20 39 -19 c26 -14 100 -28 228 -46z m-219 -46 c13 -19 27 -35 32 -37 5 -2 29
8 53 22 72 43 110 33 170 -45 21 -28 48 -51 64 -55 15 -4 66 1 115 11 49 10
108 15 133 13 81 -10 145 -73 118 -117 -6 -9 -25 -25 -43 -35 -48 -28 -113
-25 -177 7 -66 34 -86 34 -148 -3 -69 -41 -102 -39 -188 13 -71 41 -73 42
-155 39 -80 -2 -84 -1 -113 27 -23 24 -29 38 -29 73 0 54 30 105 72 123 41 17
67 7 96 -36z m1466 7 l41 -43 41 20 c49 23 71 18 80 -19 10 -40 -22 -92 -76
-121 -53 -30 -55 -33 -75 -100 -21 -72 -55 -91 -133 -73 -43 9 -67 9 -119 -1
-80 -16 -97 -8 -101 48 -4 50 16 73 62 73 48 0 63 24 68 106 7 106 48 153 132
154 34 0 45 -6 80 -44z"/>
<path d="M2503 2650 c-25 -36 -32 -40 -73 -40 -54 0 -106 -29 -121 -68 -11
-27 -8 -94 4 -122 5 -10 -11 -38 -48 -82 -30 -37 -51 -69 -46 -72 7 -4 102 95
117 122 1 1 14 -2 29 -8 52 -20 124 16 164 81 27 45 26 81 -3 116 -22 26 -23
30 -9 48 26 36 33 54 24 60 -5 3 -22 -13 -38 -35z m-13 -75 c56 -29 38 -112
-33 -155 -71 -44 -132 -14 -132 65 0 84 87 130 165 90z"/>
<path d="M2735 2573 c-43 -65 -113 -165 -155 -223 -92 -126 -93 -127 -81 -134
16 -10 331 431 331 464 0 27 -23 1 -95 -107z"/>
<path d="M953 2472 c-18 -2 -33 -8 -33 -14 0 -6 -9 -8 -19 -5 -14 3 -18 1 -14
-9 3 -9 -2 -14 -16 -14 -14 0 -21 -6 -21 -20 0 -11 -4 -20 -9 -20 -5 0 -12
-24 -15 -54 -8 -58 7 -136 26 -136 6 0 21 -12 33 -26 56 -65 191 -28 241 68
22 41 18 114 -8 151 -25 37 -70 77 -80 71 -3 -2 -17 -1 -30 4 -12 4 -38 6 -55
4z"/>
<path d="M4000 2461 c0 -6 -9 -11 -20 -11 -11 0 -20 -4 -20 -9 0 -5 -10 -11
-22 -13 -13 -2 -23 -10 -23 -18 -1 -29 -17 -61 -29 -57 -17 7 4 -121 22 -132
7 -4 12 -14 10 -22 -2 -9 7 -15 25 -17 15 -2 27 -9 27 -17 0 -7 7 -16 16 -19
44 -17 137 5 127 30 -3 8 0 14 6 14 6 0 11 -5 11 -12 0 -6 11 -1 24 11 15 14
22 30 19 42 -3 12 0 19 8 19 10 0 14 16 14 58 0 63 -23 120 -58 142 -28 17
-137 26 -137 11z"/>
</g>
</svg>
